<svg xmlns="http://www.w3.org/2000/svg" viewBox="0 0 1200 675" width="1200" height="675"><rect x="0" y="0" width="1200" height="675" fill="#FFFDF6"/><rect x="164" y="134" width="620" height="440" fill="#121212"/><rect x="150" y="120" width="620" height="440" fill="#FFFFFF" stroke="#121212" stroke-linejoin="round" stroke-linecap="round" stroke-width="8"/><polygon points="190,520 380,300 520,460 600,380 730,520" fill="#FFB3C7" stroke="#121212" stroke-linejoin="round" stroke-linecap="round" stroke-width="8"/><circle cx="640" cy="220" r="45" fill="#FFD23F" stroke="#121212" stroke-linejoin="round" stroke-linecap="round" stroke-width="8"/><circle cx="820" cy="330" r="150" fill="#FFFFFF" stroke="#121212" stroke-linejoin="round" stroke-linecap="round" stroke-width="10"/><rect x="720" y="230" width="40" height="40" fill="#FFB3C7" stroke="#121212" stroke-linejoin="round" stroke-linecap="round" stroke-width="4"/><rect x="720" y="270" width="40" height="40" fill="#FFFFFF" stroke="#121212" stroke-linejoin="round" stroke-linecap="round" stroke-width="4"/><rect x="720" y="310" width="40" height="40" fill="#CFD8FF" stroke="#121212" stroke-linejoin="round" stroke-linecap="round" stroke-width="4"/><rect x="720" y="350" width="40" height="40" fill="#FFB3C7" stroke="#121212" stroke-linejoin="round" stroke-linecap="round" stroke-width="4"/><rect x="720" y="390" width="40" height="40" fill="#FFFFFF" stroke="#121212" stroke-linejoin="round" stroke-linecap="round" stroke-width="4"/><rect x="760" y="230" width="40" height="40" fill="#FFFFFF" stroke="#121212" stroke-linejoin="round" stroke-linecap="round" stroke-width="4"/><rect x="760" y="270" width="40" height="40" fill="#CFD8FF" stroke="#121212" stroke-linejoin="round" stroke-linecap="round" stroke-width="4"/><rect x="760" y="310" width="40" height="40" fill="#FFB3C7" stroke="#121212" stroke-linejoin="round" stroke-linecap="round" stroke-width="4"/><rect x="760" y="350" width="40" height="40" fill="#FFFFFF" stroke="#121212" stroke-linejoin="round" stroke-linecap="round" stroke-width="4"/><rect x="760" y="390" width="40" height="40" fill="#CFD8FF" stroke="#121212" stroke-linejoin="round" stroke-linecap="round" stroke-width="4"/><rect x="800" y="230" width="40" height="40" fill="#CFD8FF" stroke="#121212" stroke-linejoin="round" stroke-linecap="round" stroke-width="4"/><rect x="800" y="270" width="40" height="40" fill="#FFB3C7" stroke="#121212" stroke-linejoin="round" stroke-linecap="round" stroke-width="4"/><rect x="800" y="310" width="40" height="40" fill="#FFFFFF" stroke="#121212" stroke-linejoin="round" stroke-linecap="round" stroke-width="4"/><rect x="800" y="350" width="40" height="40" fill="#CFD8FF" stroke="#121212" stroke-linejoin="round" stroke-linecap="round" stroke-width="4"/><rect x="800" y="390" width="40" height="40" fill="#FFB3C7" stroke="#121212" stroke-linejoin="round" stroke-linecap="round" stroke-width="4"/><rect x="840" y="230" width="40" height="40" fill="#FFB3C7" stroke="#121212" stroke-linejoin="round" stroke-linecap="round" stroke-width="4"/><rect x="840" y="270" width="40" height="40" fill="#FFFFFF" stroke="#121212" stroke-linejoin="round" stroke-linecap="round" stroke-width="4"/><rect x="840" y="310" width="40" height="40" fill="#CFD8FF" stroke="#121212" stroke-linejoin="round" stroke-linecap="round" stroke-width="4"/><rect x="840" y="350" width="40" height="40" fill="#FFB3C7" stroke="#121212" stroke-linejoin="round" stroke-linecap="round" stroke-width="4"/><rect x="840" y="390" width="40" height="40" fill="#FFFFFF" stroke="#121212" stroke-linejoin="round" stroke-linecap="round" stroke-width="4"/><rect x="880" y="230" width="40" height="40" fill="#FFFFFF" stroke="#121212" stroke-linejoin="round" stroke-linecap="round" stroke-width="4"/><rect x="880" y="270" width="40" height="40" fill="#CFD8FF" stroke="#121212" stroke-linejoin="round" stroke-linecap="round" stroke-width="4"/><rect x="880" y="310" width="40" height="40" fill="#FFB3C7" stroke="#121212" stroke-linejoin="round" stroke-linecap="round" stroke-width="4"/><rect x="880" y="350" width="40" height="40" fill="#FFFFFF" stroke="#121212" stroke-linejoin="round" stroke-linecap="round" stroke-width="4"/><rect x="880" y="390" width="40" height="40" fill="#CFD8FF" stroke="#121212" stroke-linejoin="round" stroke-linecap="round" stroke-width="4"/><circle cx="820" cy="330" r="150" fill="none" stroke="#121212" stroke-linejoin="round" stroke-linecap="round" stroke-width="10"/><path d="M 925 445 L 1060 580" fill="none" stroke="#121212" stroke-linejoin="round" stroke-linecap="round" stroke-width="40"/><path d="M 925 445 L 1060 580" fill="none" stroke="#FFB3C7" stroke-linejoin="round" stroke-linecap="round" stroke-width="24"/></svg>
